<mxfile host="app.diagrams.net" agent="Mozilla/5.0 (X11; Ubuntu; Linux x86_64; rv:132.0) Gecko/20100101 Firefox/132.0" version="26.0.9">
  <diagram name="Page-1" id="pBZP5skkV04rKn3Eo_FY">
    <mxGraphModel dx="995" dy="901" grid="1" gridSize="10" guides="1" tooltips="1" connect="1" arrows="1" fold="1" page="1" pageScale="1" pageWidth="850" pageHeight="1100" math="0" shadow="0">
      <root>
        <mxCell id="0" />
        <mxCell id="1" parent="0" />
        <mxCell id="uCDr8JyEL4OimWCHiC16-3" value="" style="edgeStyle=orthogonalEdgeStyle;rounded=0;orthogonalLoop=1;jettySize=auto;html=1;" edge="1" parent="1" source="uCDr8JyEL4OimWCHiC16-1" target="uCDr8JyEL4OimWCHiC16-2">
          <mxGeometry relative="1" as="geometry" />
        </mxCell>
        <mxCell id="uCDr8JyEL4OimWCHiC16-1" value="start" style="ellipse;whiteSpace=wrap;html=1;" vertex="1" parent="1">
          <mxGeometry x="400" y="30" width="120" height="80" as="geometry" />
        </mxCell>
        <mxCell id="uCDr8JyEL4OimWCHiC16-18" value="" style="edgeStyle=orthogonalEdgeStyle;rounded=0;orthogonalLoop=1;jettySize=auto;html=1;" edge="1" parent="1" source="uCDr8JyEL4OimWCHiC16-2" target="uCDr8JyEL4OimWCHiC16-10">
          <mxGeometry relative="1" as="geometry" />
        </mxCell>
        <mxCell id="uCDr8JyEL4OimWCHiC16-2" value="&lt;div&gt;n = 0 &lt;br&gt;&lt;/div&gt;&lt;div&gt;div = 0&lt;/div&gt;&lt;div&gt;cont = 0&lt;/div&gt;&lt;div&gt;a = 0 &lt;br&gt;&lt;/div&gt;" style="whiteSpace=wrap;html=1;" vertex="1" parent="1">
          <mxGeometry x="400" y="130" width="120" height="60" as="geometry" />
        </mxCell>
        <mxCell id="uCDr8JyEL4OimWCHiC16-22" value="" style="edgeStyle=orthogonalEdgeStyle;rounded=0;orthogonalLoop=1;jettySize=auto;html=1;" edge="1" parent="1" source="uCDr8JyEL4OimWCHiC16-4" target="uCDr8JyEL4OimWCHiC16-21">
          <mxGeometry relative="1" as="geometry" />
        </mxCell>
        <mxCell id="uCDr8JyEL4OimWCHiC16-4" value="cont == 10" style="rhombus;whiteSpace=wrap;html=1;" vertex="1" parent="1">
          <mxGeometry x="610" y="310" width="80" height="80" as="geometry" />
        </mxCell>
        <mxCell id="uCDr8JyEL4OimWCHiC16-8" value="read n" style="shape=parallelogram;perimeter=parallelogramPerimeter;whiteSpace=wrap;html=1;fixedSize=1;" vertex="1" parent="1">
          <mxGeometry x="400" y="220" width="120" height="60" as="geometry" />
        </mxCell>
        <mxCell id="uCDr8JyEL4OimWCHiC16-15" value="" style="edgeStyle=orthogonalEdgeStyle;rounded=0;orthogonalLoop=1;jettySize=auto;html=1;" edge="1" parent="1" source="uCDr8JyEL4OimWCHiC16-10" target="uCDr8JyEL4OimWCHiC16-14">
          <mxGeometry relative="1" as="geometry" />
        </mxCell>
        <mxCell id="uCDr8JyEL4OimWCHiC16-16" value="false" style="edgeLabel;html=1;align=center;verticalAlign=middle;resizable=0;points=[];" vertex="1" connectable="0" parent="uCDr8JyEL4OimWCHiC16-15">
          <mxGeometry x="-0.2889" y="-1" relative="1" as="geometry">
            <mxPoint as="offset" />
          </mxGeometry>
        </mxCell>
        <mxCell id="uCDr8JyEL4OimWCHiC16-19" value="" style="edgeStyle=orthogonalEdgeStyle;rounded=0;orthogonalLoop=1;jettySize=auto;html=1;" edge="1" parent="1" source="uCDr8JyEL4OimWCHiC16-10" target="uCDr8JyEL4OimWCHiC16-4">
          <mxGeometry relative="1" as="geometry" />
        </mxCell>
        <mxCell id="uCDr8JyEL4OimWCHiC16-20" value="true" style="edgeLabel;html=1;align=center;verticalAlign=middle;resizable=0;points=[];" vertex="1" connectable="0" parent="uCDr8JyEL4OimWCHiC16-19">
          <mxGeometry x="-0.0523" y="-4" relative="1" as="geometry">
            <mxPoint as="offset" />
          </mxGeometry>
        </mxCell>
        <mxCell id="uCDr8JyEL4OimWCHiC16-10" value="n &amp;gt; 0 and n % 1 == 0 " style="rhombus;whiteSpace=wrap;html=1;" vertex="1" parent="1">
          <mxGeometry x="400" y="300" width="120" height="100" as="geometry" />
        </mxCell>
        <mxCell id="uCDr8JyEL4OimWCHiC16-38" style="edgeStyle=orthogonalEdgeStyle;rounded=0;orthogonalLoop=1;jettySize=auto;html=1;entryX=0.5;entryY=0;entryDx=0;entryDy=0;" edge="1" parent="1" source="uCDr8JyEL4OimWCHiC16-14" target="uCDr8JyEL4OimWCHiC16-36">
          <mxGeometry relative="1" as="geometry" />
        </mxCell>
        <mxCell id="uCDr8JyEL4OimWCHiC16-14" value="read errore " style="shape=parallelogram;perimeter=parallelogramPerimeter;whiteSpace=wrap;html=1;fixedSize=1;" vertex="1" parent="1">
          <mxGeometry x="170" y="330" width="120" height="60" as="geometry" />
        </mxCell>
        <mxCell id="uCDr8JyEL4OimWCHiC16-30" value="" style="edgeStyle=orthogonalEdgeStyle;rounded=0;orthogonalLoop=1;jettySize=auto;html=1;" edge="1" parent="1" source="uCDr8JyEL4OimWCHiC16-21" target="uCDr8JyEL4OimWCHiC16-29">
          <mxGeometry relative="1" as="geometry" />
        </mxCell>
        <mxCell id="uCDr8JyEL4OimWCHiC16-21" value="read a " style="shape=parallelogram;perimeter=parallelogramPerimeter;whiteSpace=wrap;html=1;fixedSize=1;" vertex="1" parent="1">
          <mxGeometry x="590" y="430" width="120" height="60" as="geometry" />
        </mxCell>
        <mxCell id="uCDr8JyEL4OimWCHiC16-26" value="" style="edgeStyle=orthogonalEdgeStyle;rounded=0;orthogonalLoop=1;jettySize=auto;html=1;" edge="1" parent="1" source="uCDr8JyEL4OimWCHiC16-23" target="uCDr8JyEL4OimWCHiC16-25">
          <mxGeometry relative="1" as="geometry" />
        </mxCell>
        <mxCell id="uCDr8JyEL4OimWCHiC16-35" value="true" style="edgeLabel;html=1;align=center;verticalAlign=middle;resizable=0;points=[];" vertex="1" connectable="0" parent="uCDr8JyEL4OimWCHiC16-26">
          <mxGeometry x="-0.1667" relative="1" as="geometry">
            <mxPoint as="offset" />
          </mxGeometry>
        </mxCell>
        <mxCell id="uCDr8JyEL4OimWCHiC16-33" value="" style="edgeStyle=orthogonalEdgeStyle;rounded=0;orthogonalLoop=1;jettySize=auto;html=1;" edge="1" parent="1" source="uCDr8JyEL4OimWCHiC16-23" target="uCDr8JyEL4OimWCHiC16-32">
          <mxGeometry relative="1" as="geometry" />
        </mxCell>
        <mxCell id="uCDr8JyEL4OimWCHiC16-34" value="false" style="edgeLabel;html=1;align=center;verticalAlign=middle;resizable=0;points=[];" vertex="1" connectable="0" parent="uCDr8JyEL4OimWCHiC16-33">
          <mxGeometry x="-0.2353" y="2" relative="1" as="geometry">
            <mxPoint as="offset" />
          </mxGeometry>
        </mxCell>
        <mxCell id="uCDr8JyEL4OimWCHiC16-23" value="a % n == 0" style="rhombus;whiteSpace=wrap;html=1;" vertex="1" parent="1">
          <mxGeometry x="600" y="610" width="80" height="80" as="geometry" />
        </mxCell>
        <mxCell id="uCDr8JyEL4OimWCHiC16-28" value="" style="edgeStyle=orthogonalEdgeStyle;rounded=0;orthogonalLoop=1;jettySize=auto;html=1;" edge="1" parent="1" source="uCDr8JyEL4OimWCHiC16-25" target="uCDr8JyEL4OimWCHiC16-27">
          <mxGeometry relative="1" as="geometry" />
        </mxCell>
        <mxCell id="uCDr8JyEL4OimWCHiC16-25" value="div += 1" style="whiteSpace=wrap;html=1;" vertex="1" parent="1">
          <mxGeometry x="740" y="620" width="120" height="60" as="geometry" />
        </mxCell>
        <mxCell id="uCDr8JyEL4OimWCHiC16-41" style="edgeStyle=orthogonalEdgeStyle;rounded=0;orthogonalLoop=1;jettySize=auto;html=1;" edge="1" parent="1" source="uCDr8JyEL4OimWCHiC16-27">
          <mxGeometry relative="1" as="geometry">
            <mxPoint x="940" y="350" as="targetPoint" />
          </mxGeometry>
        </mxCell>
        <mxCell id="uCDr8JyEL4OimWCHiC16-27" value="read div" style="shape=parallelogram;perimeter=parallelogramPerimeter;whiteSpace=wrap;html=1;fixedSize=1;" vertex="1" parent="1">
          <mxGeometry x="740" y="720" width="120" height="60" as="geometry" />
        </mxCell>
        <mxCell id="uCDr8JyEL4OimWCHiC16-31" value="" style="edgeStyle=orthogonalEdgeStyle;rounded=0;orthogonalLoop=1;jettySize=auto;html=1;" edge="1" parent="1" source="uCDr8JyEL4OimWCHiC16-29" target="uCDr8JyEL4OimWCHiC16-23">
          <mxGeometry relative="1" as="geometry" />
        </mxCell>
        <mxCell id="uCDr8JyEL4OimWCHiC16-29" value="cont += 1" style="whiteSpace=wrap;html=1;" vertex="1" parent="1">
          <mxGeometry x="590" y="520" width="120" height="60" as="geometry" />
        </mxCell>
        <mxCell id="uCDr8JyEL4OimWCHiC16-37" style="edgeStyle=orthogonalEdgeStyle;rounded=0;orthogonalLoop=1;jettySize=auto;html=1;entryX=1;entryY=0.5;entryDx=0;entryDy=0;" edge="1" parent="1" source="uCDr8JyEL4OimWCHiC16-32" target="uCDr8JyEL4OimWCHiC16-36">
          <mxGeometry relative="1" as="geometry" />
        </mxCell>
        <mxCell id="uCDr8JyEL4OimWCHiC16-32" value="read errore" style="shape=parallelogram;perimeter=parallelogramPerimeter;whiteSpace=wrap;html=1;fixedSize=1;" vertex="1" parent="1">
          <mxGeometry x="420" y="620" width="120" height="60" as="geometry" />
        </mxCell>
        <mxCell id="uCDr8JyEL4OimWCHiC16-40" value="" style="edgeStyle=orthogonalEdgeStyle;rounded=0;orthogonalLoop=1;jettySize=auto;html=1;" edge="1" parent="1" source="uCDr8JyEL4OimWCHiC16-36" target="uCDr8JyEL4OimWCHiC16-39">
          <mxGeometry relative="1" as="geometry" />
        </mxCell>
        <mxCell id="uCDr8JyEL4OimWCHiC16-36" value="" style="ellipse;whiteSpace=wrap;html=1;aspect=fixed;" vertex="1" parent="1">
          <mxGeometry x="190" y="580" width="80" height="80" as="geometry" />
        </mxCell>
        <mxCell id="uCDr8JyEL4OimWCHiC16-39" value="end" style="ellipse;whiteSpace=wrap;html=1;" vertex="1" parent="1">
          <mxGeometry x="190" y="700" width="120" height="80" as="geometry" />
        </mxCell>
        <mxCell id="uCDr8JyEL4OimWCHiC16-42" value="" style="endArrow=classic;html=1;rounded=0;entryX=1;entryY=0.5;entryDx=0;entryDy=0;" edge="1" parent="1" target="uCDr8JyEL4OimWCHiC16-4">
          <mxGeometry width="50" height="50" relative="1" as="geometry">
            <mxPoint x="940" y="350" as="sourcePoint" />
            <mxPoint x="990" y="300" as="targetPoint" />
          </mxGeometry>
        </mxCell>
      </root>
    </mxGraphModel>
  </diagram>
</mxfile>
